<svg width="50" height="50" viewBox="0 0 50 50" fill="none" xmlns="http://www.w3.org/2000/svg">
<path d="M25.0039 12.7038C29.012 12.7038 29.4825 12.7217 31.0667 12.7931C32.5317 12.8587 33.3238 13.1028 33.8539 13.3113C34.5566 13.5852 35.0569 13.9068 35.581 14.4309C36.1051 14.955 36.4326 15.4553 36.7006 16.158C36.9031 16.6881 37.1532 17.4801 37.2188 18.9452C37.2902 20.5294 37.3081 20.9999 37.3081 25.0079C37.3081 29.016 37.2902 29.4865 37.2188 31.0707C37.1532 32.5357 36.9091 33.3278 36.7006 33.8579C36.4267 34.5606 36.1051 35.0609 35.581 35.585C35.0569 36.1091 34.5566 36.4366 33.8539 36.7046C33.3238 36.9071 32.5317 37.1572 31.0667 37.2227C29.4825 37.2942 29.012 37.3121 25.0039 37.3121C20.9959 37.3121 20.5254 37.2942 18.9412 37.2227C17.4762 37.1572 16.6841 36.913 16.154 36.7046C15.4513 36.4306 14.951 36.1091 14.4269 35.585C13.9028 35.0609 13.5753 34.5606 13.3073 33.8579C13.1048 33.3278 12.8547 32.5357 12.7891 31.0707C12.7177 29.4865 12.6998 29.016 12.6998 25.0079C12.6998 20.9999 12.7177 20.5294 12.7891 18.9452C12.8547 17.4801 13.0988 16.6881 13.3073 16.158C13.5812 15.4553 13.9028 14.955 14.4269 14.4309C14.951 13.9068 15.4513 13.5793 16.154 13.3113C16.6841 13.1088 17.4762 12.8587 18.9412 12.7931C20.5254 12.7157 21.0018 12.7038 25.0039 12.7038ZM25.0039 10C20.9304 10 20.4182 10.0179 18.8161 10.0893C17.2201 10.1608 16.1302 10.4169 15.1773 10.7861C14.1887 11.1673 13.3549 11.6854 12.5211 12.5192C11.6874 13.353 11.1752 14.1927 10.7881 15.1754C10.4188 16.1282 10.1628 17.2181 10.0913 18.8201C10.0198 20.4162 10.002 20.9284 10.002 25.002C10.002 29.0756 10.0198 29.5877 10.0913 31.1898C10.1628 32.7859 10.4188 33.8757 10.7881 34.8346C11.1692 35.8232 11.6874 36.657 12.5211 37.4907C13.3549 38.3245 14.1947 38.8367 15.1773 39.2238C16.1302 39.593 17.2201 39.8491 18.8221 39.9206C20.4241 39.9921 20.9304 40.0099 25.0099 40.0099C29.0894 40.0099 29.5957 39.9921 31.1977 39.9206C32.7938 39.8491 33.8837 39.593 34.8425 39.2238C35.8311 38.8426 36.6649 38.3245 37.4987 37.4907C38.3324 36.657 38.8446 35.8172 39.2317 34.8346C39.601 33.8817 39.8571 32.7918 39.9285 31.1898C40 29.5877 40.0179 29.0815 40.0179 25.002C40.0179 20.9224 40 20.4162 39.9285 18.8142C39.8571 17.2181 39.601 16.1282 39.2317 15.1694C38.8506 14.1808 38.3324 13.347 37.4987 12.5132C36.6649 11.6795 35.8252 11.1673 34.8425 10.7802C33.8896 10.4109 32.7997 10.1548 31.1977 10.0834C29.5897 10.0179 29.0775 10 25.0039 10Z" fill="white"/>
<path d="M25.0038 17.3015C20.7516 17.3015 17.2974 20.7498 17.2974 25.008C17.2974 29.2662 20.7456 32.7144 25.0038 32.7144C29.262 32.7144 32.7103 29.2662 32.7103 25.008C32.7103 20.7498 29.262 17.3015 25.0038 17.3015ZM25.0038 30.0047C22.2405 30.0047 20.0012 27.7654 20.0012 25.002C20.0012 22.2386 22.2405 19.9994 25.0038 19.9994C27.7672 19.9994 30.0065 22.2386 30.0065 25.002C30.0065 27.7654 27.7672 30.0047 25.0038 30.0047Z" fill="white"/>
<path d="M33.0144 18.7904C34.0077 18.7904 34.813 17.9851 34.813 16.9918C34.813 15.9985 34.0077 15.1932 33.0144 15.1932C32.0211 15.1932 31.2158 15.9985 31.2158 16.9918C31.2158 17.9851 32.0211 18.7904 33.0144 18.7904Z" fill="white"/>
</svg>
