<svg width="50" height="50" viewBox="0 0 50 50" fill="none" xmlns="http://www.w3.org/2000/svg">
<path d="M9.83496 39.5418L11.9786 31.7576C10.6533 29.4729 9.95807 26.8854 9.96532 24.2402C9.96532 15.9516 16.7438 9.21252 25.0647 9.21252C29.1057 9.21252 32.9005 10.7766 35.7466 13.6163C38.5999 16.4561 40.1714 20.2328 40.1642 24.2474C40.1642 32.5361 33.3857 39.2751 25.0575 39.2751H25.0503C22.5228 39.2751 20.0388 38.6408 17.8301 37.4444L9.83496 39.5418ZM18.2139 34.7271L18.6701 35.001C20.5965 36.1398 22.8053 36.738 25.0575 36.7452H25.0647C31.9808 36.7452 37.615 31.145 37.615 24.2546C37.615 20.9175 36.3115 17.7823 33.9433 15.4182C31.5752 13.0541 28.4178 11.7568 25.0647 11.7568C18.1487 11.7496 12.5145 17.3498 12.5145 24.2402C12.5145 26.5971 13.1735 28.8963 14.4336 30.8855L14.7305 31.3612L13.4632 35.9668L18.2139 34.7271Z" fill="white"/>
<path d="M9.83496 39.5418L11.9786 31.7576C10.6533 29.4729 9.95807 26.8854 9.96532 24.2402C9.96532 15.9516 16.7438 9.21252 25.0647 9.21252C29.1057 9.21252 32.9005 10.7766 35.7466 13.6163C38.5999 16.4561 40.1714 20.2328 40.1642 24.2474C40.1642 32.5361 33.3857 39.2751 25.0575 39.2751H25.0503C22.5228 39.2751 20.0388 38.6408 17.8301 37.4444L9.83496 39.5418ZM18.2139 34.7271L18.6701 35.001C20.5965 36.1398 22.8053 36.738 25.0575 36.7452H25.0647C31.9808 36.7452 37.615 31.145 37.615 24.2546C37.615 20.9175 36.3115 17.7823 33.9433 15.4182C31.5752 13.0541 28.4178 11.7568 25.0647 11.7568C18.1487 11.7496 12.5145 17.3498 12.5145 24.2402C12.5145 26.5971 13.1735 28.8963 14.4336 30.8855L14.7305 31.3612L13.4632 35.9668L18.2139 34.7271Z" fill="white"/>
<path fill-rule="evenodd" clip-rule="evenodd" d="M21.2917 17.9552C21.0092 17.3281 20.7123 17.3137 20.4444 17.3065C20.2271 17.2993 19.9736 17.2993 19.7202 17.2993C19.4667 17.2993 19.0612 17.393 18.7135 17.7678C18.3659 18.1426 17.3955 19.0507 17.3955 20.9031C17.3955 22.7482 18.7497 24.5357 18.938 24.7879C19.1263 25.0402 21.5524 28.9539 25.3834 30.4602C28.5698 31.7144 29.2216 31.4621 29.9096 31.3972C30.5975 31.3324 32.1401 30.4891 32.4587 29.6098C32.7701 28.7304 32.7701 27.9809 32.676 27.8223C32.5818 27.6637 32.3284 27.57 31.9518 27.3826C31.5752 27.1952 29.7213 26.2871 29.3737 26.1574C29.026 26.0348 28.7726 25.97 28.5264 26.3448C28.2729 26.7195 27.5487 27.5628 27.3314 27.8151C27.1142 28.0673 26.8897 28.0962 26.5131 27.9088C26.1365 27.7214 24.9199 27.325 23.4787 26.042C22.3562 25.0474 21.5958 23.8149 21.3786 23.4401C21.1613 23.0653 21.3568 22.8635 21.5451 22.6761C21.7117 22.5104 21.9217 22.2365 22.11 22.0202C22.2983 21.804 22.3635 21.6455 22.4866 21.3932C22.6097 21.1409 22.5518 20.9247 22.4576 20.7373C22.3635 20.5571 21.6248 18.6976 21.2917 17.9552Z" fill="white"/>
</svg>
